<svg width="24" height="24" viewBox="0 0 24 24" fill="none" xmlns="http://www.w3.org/2000/svg">
  <path d="M11.0818 3.12723C11.4292 2.32217 12.5707 2.32217 12.9181 3.12723L15.0982 8.17911C15.2453 8.52 15.5691 8.75132 15.9393 8.77993L21.5299 9.21192C22.4269 9.28123 22.7833 10.4073 22.0896 10.9801L17.8852 14.4514C17.5886 14.6962 17.4588 15.0894 17.5511 15.4627L18.8451 20.6911C19.0579 21.5509 18.1303 22.2424 17.367 21.7931L12.5073 18.9321C12.1942 18.7478 11.8058 18.7478 11.4927 18.9321L6.63292 21.7931C5.86962 22.2424 4.9421 21.5509 5.15489 20.6911L6.44882 15.4627C6.54121 15.0894 6.41134 14.6962 6.11478 14.4514L1.9104 10.9801C1.21664 10.4073 1.57304 9.28123 2.47003 9.21192L8.06068 8.77993C8.43085 8.75132 8.7547 8.52 8.9018 8.17911L11.0818 3.12723Z" fill="#04B90B" />
</svg>