<svg width="367" height="143" viewBox="0 0 367 143" fill="none" xmlns="http://www.w3.org/2000/svg">
  <path fill-rule="evenodd" clip-rule="evenodd" d="M3.20753 10.4768L0.253104 15.699L311.491 192.677L317.429 182.207L3.20753 10.4768ZM321.384 184.356L315.396 194.914L352.309 216.052L358.694 204.636L321.384 184.356Z" fill="#2F363A" />
  <path d="M317.429 182.207L311.491 192.677L315.396 194.914L321.384 184.356L317.429 182.207Z" fill="#F7E89D" />
  <path fill-rule="evenodd" clip-rule="evenodd" d="M8.66112 0.8365L5.78241 6.10079L319.544 178.566L325.33 168.011L8.66112 0.8365ZM329.315 170.103L323.481 180.746L360.695 201.349L366.915 189.842L329.315 170.103Z" fill="#2F363A" />
  <path d="M325.33 168.011L319.544 178.566L323.481 180.746L329.315 170.103L325.33 168.011Z" fill="#F7E89D" />
</svg>